<mxfile host="app.diagrams.net" modified="2024-03-01T20:40:42.918Z" agent="Mozilla/5.0 (X11; CrOS x86_64 14541.0.0) AppleWebKit/537.36 (KHTML, like Gecko) Chrome/120.0.0.0 Safari/537.36" etag="gD0yfdWTeNEreTrV21kH" version="24.0.0" type="github">
  <diagram name="Page-1" id="YLDiHeWnEV0Y1mxheDNH">
    <mxGraphModel dx="652" dy="365" grid="1" gridSize="10" guides="1" tooltips="1" connect="1" arrows="1" fold="1" page="1" pageScale="1" pageWidth="850" pageHeight="1100" math="0" shadow="0">
      <root>
        <mxCell id="0" />
        <mxCell id="1" parent="0" />
        <mxCell id="ejboTwDgrPvzkxiGWpOO-9" style="edgeStyle=orthogonalEdgeStyle;rounded=0;orthogonalLoop=1;jettySize=auto;html=1;" edge="1" parent="1" source="ejboTwDgrPvzkxiGWpOO-3" target="ejboTwDgrPvzkxiGWpOO-5">
          <mxGeometry relative="1" as="geometry" />
        </mxCell>
        <mxCell id="ejboTwDgrPvzkxiGWpOO-10" value="" style="edgeStyle=orthogonalEdgeStyle;rounded=0;orthogonalLoop=1;jettySize=auto;html=1;" edge="1" parent="1" source="ejboTwDgrPvzkxiGWpOO-3" target="ejboTwDgrPvzkxiGWpOO-7">
          <mxGeometry relative="1" as="geometry" />
        </mxCell>
        <mxCell id="ejboTwDgrPvzkxiGWpOO-3" value="" style="outlineConnect=0;dashed=0;verticalLabelPosition=bottom;verticalAlign=top;align=center;html=1;shape=mxgraph.aws3.lambda_function;fillColor=#F58534;gradientColor=none;" vertex="1" parent="1">
          <mxGeometry x="400" y="160" width="69" height="72" as="geometry" />
        </mxCell>
        <mxCell id="ejboTwDgrPvzkxiGWpOO-8" style="edgeStyle=orthogonalEdgeStyle;rounded=0;orthogonalLoop=1;jettySize=auto;html=1;" edge="1" parent="1" source="ejboTwDgrPvzkxiGWpOO-4" target="ejboTwDgrPvzkxiGWpOO-5">
          <mxGeometry relative="1" as="geometry" />
        </mxCell>
        <mxCell id="ejboTwDgrPvzkxiGWpOO-4" value="" style="sketch=0;points=[[0,0,0],[0.25,0,0],[0.5,0,0],[0.75,0,0],[1,0,0],[0,1,0],[0.25,1,0],[0.5,1,0],[0.75,1,0],[1,1,0],[0,0.25,0],[0,0.5,0],[0,0.75,0],[1,0.25,0],[1,0.5,0],[1,0.75,0]];outlineConnect=0;fontColor=#232F3E;fillColor=#E7157B;strokeColor=#ffffff;dashed=0;verticalLabelPosition=bottom;verticalAlign=top;align=center;html=1;fontSize=12;fontStyle=0;aspect=fixed;shape=mxgraph.aws4.resourceIcon;resIcon=mxgraph.aws4.api_gateway;" vertex="1" parent="1">
          <mxGeometry x="120" y="162" width="70" height="70" as="geometry" />
        </mxCell>
        <mxCell id="ejboTwDgrPvzkxiGWpOO-5" value="Amazon SQS" style="sketch=0;outlineConnect=0;fontColor=#232F3E;gradientColor=none;strokeColor=#ffffff;fillColor=#232F3E;dashed=0;verticalLabelPosition=middle;verticalAlign=bottom;align=center;html=1;whiteSpace=wrap;fontSize=10;fontStyle=1;spacing=3;shape=mxgraph.aws4.productIcon;prIcon=mxgraph.aws4.sqs;" vertex="1" parent="1">
          <mxGeometry x="260" y="162" width="80" height="100" as="geometry" />
        </mxCell>
        <mxCell id="ejboTwDgrPvzkxiGWpOO-7" value="Amazon DynamoDB" style="sketch=0;outlineConnect=0;fontColor=#232F3E;gradientColor=none;strokeColor=#ffffff;fillColor=#232F3E;dashed=0;verticalLabelPosition=middle;verticalAlign=bottom;align=center;html=1;whiteSpace=wrap;fontSize=10;fontStyle=1;spacing=3;shape=mxgraph.aws4.productIcon;prIcon=mxgraph.aws4.dynamodb;" vertex="1" parent="1">
          <mxGeometry x="540" y="162" width="80" height="78" as="geometry" />
        </mxCell>
      </root>
    </mxGraphModel>
  </diagram>
</mxfile>
